<?xml version="1.0" encoding="UTF-8"?>
<svg xmlns="http://www.w3.org/2000/svg" xmlns:xlink="http://www.w3.org/1999/xlink" width="12pt" height="12pt" viewBox="0 0 12 12" version="1.1">
<g id="surface1">
<path style=" stroke:none;fill-rule:nonzero;fill:rgb(40%,40.392157%,40%);fill-opacity:1;" d="M 6.371094 0.0117188 C 3.0625 -0.195312 0.214844 2.320312 0.0117188 5.628906 C -0.195312 8.9375 2.320312 11.785156 5.628906 11.988281 C 8.9375 12.195312 11.785156 9.679688 11.988281 6.371094 C 12.195312 3.0625 9.679688 0.214844 6.371094 0.0117188 Z M 6.371094 0.0117188 "/>
<path style=" stroke:none;fill-rule:nonzero;fill:rgb(95.686275%,95.686275%,95.686275%);fill-opacity:1;" d="M 9.148438 2.578125 C 9.121094 2.609375 9.089844 2.640625 9.03125 2.671875 C 8.789062 2.820312 8.730469 3.03125 8.761719 3.300781 C 8.761719 3.359375 8.789062 3.390625 8.820312 3.449219 C 8.851562 3.511719 8.878906 3.570312 8.878906 3.601562 C 8.878906 4.378906 8.878906 5.128906 8.851562 5.910156 C 8.851562 6.089844 8.761719 6.148438 8.609375 6.148438 C 8.429688 6.148438 8.339844 6.058594 8.339844 5.851562 C 8.339844 5.488281 8.339844 5.128906 8.339844 4.769531 C 8.339844 4.410156 8.371094 4.050781 8.398438 3.660156 C 8.398438 3.570312 8.488281 3.480469 8.488281 3.390625 C 8.519531 3.269531 8.519531 3.179688 8.519531 3.058594 C 8.519531 3.058594 8.488281 3.058594 8.488281 3.03125 C 8.128906 3.300781 7.800781 3.570312 7.46875 3.839844 C 7.53125 4.050781 7.589844 4.230469 7.589844 4.441406 C 7.648438 4.890625 7.441406 5.25 7.109375 5.550781 C 6.988281 5.671875 6.871094 5.761719 6.75 5.878906 C 6.601562 6.03125 6.601562 6.238281 6.71875 6.390625 C 6.898438 6.570312 7.078125 6.75 7.289062 6.929688 C 7.679688 7.261719 7.828125 7.679688 7.800781 8.160156 C 7.769531 8.699219 7.441406 9.058594 6.960938 9.269531 C 6.628906 9.449219 6.238281 9.511719 5.878906 9.480469 C 5.339844 9.480469 4.800781 9.390625 4.320312 9.089844 C 3.929688 8.820312 3.75 8.460938 3.871094 8.070312 C 3.929688 7.828125 4.050781 7.648438 4.199219 7.5 C 4.621094 7.109375 5.101562 6.929688 5.671875 6.898438 C 5.820312 6.898438 5.96875 6.898438 6.148438 6.898438 C 5.878906 6.601562 5.820312 6.328125 6 5.96875 C 5.550781 5.96875 5.160156 5.910156 4.828125 5.609375 C 4.5 5.308594 4.351562 4.949219 4.351562 4.5 C 4.109375 4.5 3.839844 4.5 3.601562 4.5 C 3.359375 4.5 3.121094 4.5 2.851562 4.46875 C 2.878906 4.441406 2.910156 4.410156 2.96875 4.378906 C 3.691406 3.78125 4.410156 3.179688 5.160156 2.550781 C 5.191406 2.519531 5.21875 2.488281 5.25 2.488281 C 6.539062 2.519531 7.828125 2.550781 9.148438 2.578125 Z M 5.96875 9.179688 C 6.300781 9.148438 6.601562 9.121094 6.871094 9 C 7.351562 8.761719 7.558594 7.921875 6.988281 7.53125 C 6.871094 7.441406 6.71875 7.320312 6.601562 7.230469 C 6.570312 7.199219 6.511719 7.171875 6.480469 7.171875 C 6 7.050781 5.519531 7.109375 5.070312 7.351562 C 4.5 7.679688 4.410156 8.308594 4.890625 8.789062 C 5.191406 9.089844 5.578125 9.179688 5.96875 9.179688 Z M 5.070312 4.410156 C 5.070312 4.441406 5.070312 4.46875 5.070312 4.53125 C 5.128906 5.011719 5.308594 5.398438 5.730469 5.671875 C 6.089844 5.910156 6.480469 5.851562 6.71875 5.519531 C 6.839844 5.371094 6.871094 5.191406 6.898438 4.980469 C 6.988281 4.441406 6.691406 3.808594 6.238281 3.539062 C 5.878906 3.328125 5.460938 3.390625 5.25 3.71875 C 5.128906 3.898438 5.070312 4.140625 5.070312 4.410156 Z M 5.070312 4.410156 "/>
</g>
</svg>
