<?xml version="1.0" encoding="UTF-8"?>
<svg xmlns="http://www.w3.org/2000/svg" xmlns:xlink="http://www.w3.org/1999/xlink" width="12pt" height="12pt" viewBox="0 0 12 12" version="1.1">
<g id="surface1">
<path style=" stroke:none;fill-rule:nonzero;fill:rgb(65.098039%,80.784314%,22.352941%);fill-opacity:1;" d="M 12 6 C 12 9.3125 9.3125 12 6 12 C 2.6875 12 0 9.3125 0 6 C 0 2.6875 2.6875 0 6 0 C 9.3125 0 12 2.6875 12 6 Z M 12 6 "/>
<path style=" stroke:none;fill-rule:nonzero;fill:rgb(100%,100%,100%);fill-opacity:1;" d="M 4.046875 8.726562 L 3.324219 8.726562 L 3.324219 3.707031 L 4.046875 3.707031 Z M 4.046875 8.726562 "/>
<path style=" stroke:none;fill-rule:nonzero;fill:rgb(100%,100%,100%);fill-opacity:1;" d="M 5.105469 3.707031 L 7.054688 3.707031 C 8.910156 3.707031 9.726562 5.035156 9.726562 6.21875 C 9.726562 7.507812 8.71875 8.734375 7.0625 8.734375 L 5.105469 8.734375 Z M 5.828125 8.082031 L 6.976562 8.082031 C 8.609375 8.082031 8.984375 6.839844 8.984375 6.21875 C 8.984375 5.210938 8.34375 4.359375 6.9375 4.359375 L 5.828125 4.359375 Z M 5.828125 8.082031 "/>
<path style=" stroke:none;fill-rule:nonzero;fill:rgb(100%,100%,100%);fill-opacity:1;" d="M 4.15625 2.664062 C 4.15625 2.921875 3.945312 3.136719 3.683594 3.136719 C 3.421875 3.136719 3.210938 2.921875 3.210938 2.664062 C 3.210938 2.398438 3.421875 2.1875 3.683594 2.1875 C 3.945312 2.1875 4.15625 2.40625 4.15625 2.664062 Z M 4.15625 2.664062 "/>
</g>
</svg>
